<svg width="77" height="77" viewBox="0 0 77 77" fill="none" xmlns="http://www.w3.org/2000/svg">
<g filter="url(#filter0_d_414_580)">
<ellipse cx="38.6381" cy="25.3976" rx="19.9858" ry="19.7218" fill="black"/>
</g>
<path d="M47.6796 26.8847C47.6796 29.0641 46.8022 31.1543 45.2405 32.6953C43.6788 34.2364 41.5607 35.1022 39.3521 35.1022C37.1436 35.1022 35.0254 34.2364 33.4637 32.6953C31.902 31.1543 31.0247 29.0641 31.0247 26.8847C31.0247 26.4163 31.0747 25.9589 31.1607 25.5151H28.2489V36.4635C28.2489 37.225 28.8734 37.8413 29.6451 37.8413H49.0619C49.4318 37.8406 49.7862 37.6951 50.0474 37.4368C50.3087 37.1785 50.4554 36.8285 50.4554 36.4635V25.5151H47.5436C47.6296 25.9589 47.6796 26.4163 47.6796 26.8847ZM39.3521 32.363C40.0814 32.3628 40.8034 32.2209 41.4771 31.9454C42.1507 31.6698 42.7628 31.266 43.2783 30.7571C43.7938 30.2481 44.2027 29.6439 44.4816 28.9791C44.7605 28.3142 44.9039 27.6016 44.9038 26.882C44.9036 26.1624 44.7598 25.4499 44.4805 24.7851C44.2013 24.1203 43.7921 23.5164 43.2763 23.0077C42.7606 22.499 42.1483 22.0955 41.4745 21.8203C40.8007 21.545 40.0786 21.4035 39.3494 21.4037C37.8766 21.404 36.4643 21.9817 35.4232 23.0096C34.3821 24.0375 33.7974 25.4314 33.7977 26.8847C33.7981 28.338 34.3835 29.7316 35.4251 30.759C36.4668 31.7864 37.8794 32.3634 39.3521 32.363ZM46.0141 21.1325H49.3423C49.5634 21.1325 49.7755 21.046 49.9321 20.892C50.0887 20.7379 50.1771 20.5289 50.1778 20.3108V17.0265C50.1778 16.8078 50.0898 16.5981 49.9331 16.4435C49.7764 16.2889 49.5639 16.202 49.3423 16.202H46.0141C45.7925 16.202 45.58 16.2889 45.4233 16.4435C45.2666 16.5981 45.1786 16.8078 45.1786 17.0265V20.3108C45.1813 20.7627 45.5561 21.1325 46.0141 21.1325ZM39.3521 0.588867C32.2847 0.588867 25.5067 3.35931 20.5093 8.29074C15.5118 13.2222 12.7043 19.9106 12.7043 26.8847C12.7043 33.8588 15.5118 40.5473 20.5093 45.4787C25.5067 50.4101 32.2847 53.1806 39.3521 53.1806C42.8516 53.1806 46.3167 52.5004 49.5498 51.1789C52.7829 49.8574 55.7205 47.9205 58.195 45.4787C60.6695 43.0369 62.6323 40.1381 63.9715 36.9477C65.3107 33.7573 65.9999 30.3379 65.9999 26.8847C65.9999 23.4315 65.3107 20.0121 63.9715 16.8217C62.6323 13.6314 60.6695 10.7325 58.195 8.29074C55.7205 5.84895 52.7829 3.91201 49.5498 2.59052C46.3167 1.26903 42.8516 0.588867 39.3521 0.588867ZM53.2312 37.5373C53.2312 39.2109 51.8433 40.5805 50.1473 40.5805H28.557C26.861 40.5805 25.4731 39.2109 25.4731 37.5373V16.2322C25.4731 14.5585 26.861 13.189 28.557 13.189H50.1473C51.8433 13.189 53.2312 14.5585 53.2312 16.2322V37.5373Z" fill="white"/>
<defs>
<filter id="filter0_d_414_580" x="0.652313" y="0.675781" width="75.9716" height="75.4436" filterUnits="userSpaceOnUse" color-interpolation-filters="sRGB">
<feFlood flood-opacity="0" result="BackgroundImageFix"/>
<feColorMatrix in="SourceAlpha" type="matrix" values="0 0 0 0 0 0 0 0 0 0 0 0 0 0 0 0 0 0 127 0" result="hardAlpha"/>
<feOffset dy="13"/>
<feGaussianBlur stdDeviation="9"/>
<feColorMatrix type="matrix" values="0 0 0 0 0.0658854 0 0 0 0 0.0730469 0 0 0 0 0.1375 0 0 0 0.08 0"/>
<feBlend mode="normal" in2="BackgroundImageFix" result="effect1_dropShadow_414_580"/>
<feBlend mode="normal" in="SourceGraphic" in2="effect1_dropShadow_414_580" result="shape"/>
</filter>
</defs>
</svg>
