<svg width="34" height="34" viewBox="0 0 34 34" fill="none" xmlns="http://www.w3.org/2000/svg">
<path d="M17 26.9168C21.6892 26.9168 25.5 23.106 25.5 18.4168V11.3335C25.5 6.64433 21.6892 2.8335 17 2.8335C12.3108 2.8335 8.5 6.64433 8.5 11.3335V18.4168C8.5 23.106 12.3108 26.9168 17 26.9168Z" stroke="white" stroke-width="2" stroke-linecap="round" stroke-linejoin="round"/>
<path d="M4.25 15.5835V18.4168C4.25 25.4577 9.95917 31.1668 17 31.1668C24.0408 31.1668 29.75 25.4577 29.75 18.4168V15.5835" stroke="white" stroke-width="2" stroke-linecap="round" stroke-linejoin="round"/>
<path d="M12.906 10.5969C15.4277 9.67604 18.176 9.67604 20.6977 10.5969" stroke="white" stroke-width="2" stroke-linecap="round" stroke-linejoin="round"/>
<path d="M14.2092 14.8467C15.9092 14.3792 17.7084 14.3792 19.4084 14.8467" stroke="white" stroke-width="2" stroke-linecap="round" stroke-linejoin="round"/>
</svg>
