<svg width="34" height="34" viewBox="0 0 34 34" fill="none" xmlns="http://www.w3.org/2000/svg">
<path d="M17.7508 28.9284H8.79748C4.32081 28.9284 2.83331 25.9534 2.83331 22.9643V11.0359C2.83331 6.55928 4.32081 5.07178 8.79748 5.07178H17.7508C22.2275 5.07178 23.715 6.55928 23.715 11.0359V22.9643C23.715 27.4409 22.2133 28.9284 17.7508 28.9284Z" stroke="white" stroke-width="2" stroke-linecap="round" stroke-linejoin="round"/>
<path d="M27.6533 24.2252L23.715 21.4627V12.5235L27.6533 9.76102C29.58 8.41519 31.1666 9.23685 31.1666 11.6027V22.3977C31.1666 24.7635 29.58 25.5852 27.6533 24.2252Z" stroke="white" stroke-width="2" stroke-linecap="round" stroke-linejoin="round"/>
<path d="M16.2916 15.5835C17.4652 15.5835 18.4166 14.6321 18.4166 13.4585C18.4166 12.2849 17.4652 11.3335 16.2916 11.3335C15.118 11.3335 14.1666 12.2849 14.1666 13.4585C14.1666 14.6321 15.118 15.5835 16.2916 15.5835Z" stroke="white" stroke-width="2" stroke-linecap="round" stroke-linejoin="round"/>
</svg>
